<mxfile host="65bd71144e" modified="2021-01-11T15:26:47.225Z" agent="5.0 (Macintosh; Intel Mac OS X 10_12_6) AppleWebKit/537.36 (KHTML, like Gecko) Code/1.51.1 Chrome/83.0.4103.122 Electron/9.3.3 Safari/537.36" etag="N5nYwfHbmiNRf7AN9hj8" version="13.10.0" type="embed">
    <diagram id="e7cXwH6r_yYMy_7RqmJk" name="Page-1">
        <mxGraphModel dx="943" dy="708" grid="1" gridSize="10" guides="1" tooltips="1" connect="1" arrows="1" fold="1" page="1" pageScale="1" pageWidth="850" pageHeight="1100" math="0" shadow="0">
            <root>
                <mxCell id="0"/>
                <mxCell id="1" parent="0"/>
                <mxCell id="17" style="edgeStyle=orthogonalEdgeStyle;rounded=0;orthogonalLoop=1;jettySize=auto;html=1;entryX=0;entryY=0.415;entryDx=0;entryDy=0;entryPerimeter=0;" edge="1" parent="1" source="6YbCgSacSCpo9KkrC0tL-1" target="9">
                    <mxGeometry relative="1" as="geometry"/>
                </mxCell>
                <mxCell id="6YbCgSacSCpo9KkrC0tL-1" value="first name&lt;br&gt;&lt;br&gt;last name&lt;br&gt;&lt;br&gt;username&lt;br&gt;&lt;br&gt;password" style="shape=internalStorage;whiteSpace=wrap;html=1;backgroundOutline=1;dx=40;dy=40;" parent="1" vertex="1">
                    <mxGeometry x="79" y="200" width="220" height="200" as="geometry"/>
                </mxCell>
                <mxCell id="18" style="edgeStyle=orthogonalEdgeStyle;rounded=0;orthogonalLoop=1;jettySize=auto;html=1;entryX=-0.009;entryY=0.422;entryDx=0;entryDy=0;entryPerimeter=0;" edge="1" parent="1" source="6YbCgSacSCpo9KkrC0tL-2" target="8">
                    <mxGeometry relative="1" as="geometry"/>
                </mxCell>
                <mxCell id="6YbCgSacSCpo9KkrC0tL-2" value="Member Table" style="rounded=0;whiteSpace=wrap;html=1;" parent="1" vertex="1">
                    <mxGeometry x="80" y="170" width="220" height="30" as="geometry"/>
                </mxCell>
                <mxCell id="2" value="PK" style="text;html=1;strokeColor=none;fillColor=none;align=center;verticalAlign=middle;whiteSpace=wrap;rounded=0;" vertex="1" parent="1">
                    <mxGeometry x="80" y="210" width="40" height="20" as="geometry"/>
                </mxCell>
                <mxCell id="3" value="id" style="text;html=1;strokeColor=none;fillColor=none;align=center;verticalAlign=middle;whiteSpace=wrap;rounded=0;" vertex="1" parent="1">
                    <mxGeometry x="130" y="210" width="40" height="20" as="geometry"/>
                </mxCell>
                <mxCell id="4" value="str" style="text;html=1;strokeColor=none;fillColor=none;align=center;verticalAlign=middle;whiteSpace=wrap;rounded=0;" vertex="1" parent="1">
                    <mxGeometry x="79" y="250" width="40" height="20" as="geometry"/>
                </mxCell>
                <mxCell id="5" value="str" style="text;html=1;strokeColor=none;fillColor=none;align=center;verticalAlign=middle;whiteSpace=wrap;rounded=0;" vertex="1" parent="1">
                    <mxGeometry x="79" y="270" width="40" height="20" as="geometry"/>
                </mxCell>
                <mxCell id="6" value="str" style="text;html=1;strokeColor=none;fillColor=none;align=center;verticalAlign=middle;whiteSpace=wrap;rounded=0;" vertex="1" parent="1">
                    <mxGeometry x="79" y="300" width="40" height="20" as="geometry"/>
                </mxCell>
                <mxCell id="7" value="str" style="text;html=1;strokeColor=none;fillColor=none;align=center;verticalAlign=middle;whiteSpace=wrap;rounded=0;" vertex="1" parent="1">
                    <mxGeometry x="79" y="330" width="40" height="20" as="geometry"/>
                </mxCell>
                <mxCell id="8" value="title&lt;br&gt;&lt;br&gt;author&lt;br&gt;&lt;br&gt;genre&lt;br&gt;&lt;br&gt;isbn&lt;br&gt;&lt;br&gt;status/list ?" style="shape=internalStorage;whiteSpace=wrap;html=1;backgroundOutline=1;dx=40;dy=40;" vertex="1" parent="1">
                    <mxGeometry x="440" y="85" width="220" height="225" as="geometry"/>
                </mxCell>
                <mxCell id="19" style="edgeStyle=none;rounded=0;orthogonalLoop=1;jettySize=auto;html=1;exitX=1;exitY=0.25;exitDx=0;exitDy=0;entryX=1.018;entryY=0.418;entryDx=0;entryDy=0;entryPerimeter=0;" edge="1" parent="1" source="9" target="8">
                    <mxGeometry relative="1" as="geometry">
                        <mxPoint x="670" y="180" as="targetPoint"/>
                        <Array as="points">
                            <mxPoint x="790" y="310"/>
                        </Array>
                    </mxGeometry>
                </mxCell>
                <mxCell id="9" value="" style="shape=internalStorage;whiteSpace=wrap;html=1;backgroundOutline=1;dx=80;dy=60;" vertex="1" parent="1">
                    <mxGeometry x="440" y="400" width="220" height="200" as="geometry"/>
                </mxCell>
                <mxCell id="10" value="Book Table" style="rounded=0;whiteSpace=wrap;html=1;" vertex="1" parent="1">
                    <mxGeometry x="440" y="55" width="220" height="30" as="geometry"/>
                </mxCell>
                <mxCell id="11" value="Post Table" style="rounded=0;whiteSpace=wrap;html=1;" vertex="1" parent="1">
                    <mxGeometry x="440" y="380" width="220" height="30" as="geometry"/>
                </mxCell>
                <mxCell id="12" value="PK" style="text;html=1;strokeColor=none;fillColor=none;align=center;verticalAlign=middle;whiteSpace=wrap;rounded=0;" vertex="1" parent="1">
                    <mxGeometry x="440" y="100" width="40" height="20" as="geometry"/>
                </mxCell>
                <mxCell id="13" value="id" style="text;html=1;strokeColor=none;fillColor=none;align=center;verticalAlign=middle;whiteSpace=wrap;rounded=0;" vertex="1" parent="1">
                    <mxGeometry x="490" y="100" width="40" height="20" as="geometry"/>
                </mxCell>
                <mxCell id="14" value="id" style="text;html=1;strokeColor=none;fillColor=none;align=center;verticalAlign=middle;whiteSpace=wrap;rounded=0;" vertex="1" parent="1">
                    <mxGeometry x="490" y="420" width="40" height="20" as="geometry"/>
                </mxCell>
                <mxCell id="15" value="PK" style="text;html=1;strokeColor=none;fillColor=none;align=center;verticalAlign=middle;whiteSpace=wrap;rounded=0;" vertex="1" parent="1">
                    <mxGeometry x="440" y="420" width="40" height="20" as="geometry"/>
                </mxCell>
                <mxCell id="20" value="FK- member_id" style="text;html=1;strokeColor=none;fillColor=none;align=center;verticalAlign=middle;whiteSpace=wrap;rounded=0;" vertex="1" parent="1">
                    <mxGeometry x="460" y="480" width="40" height="20" as="geometry"/>
                </mxCell>
                <mxCell id="21" value="FK- book_id&lt;br&gt;" style="text;html=1;strokeColor=none;fillColor=none;align=center;verticalAlign=middle;whiteSpace=wrap;rounded=0;" vertex="1" parent="1">
                    <mxGeometry x="460" y="520" width="40" height="20" as="geometry"/>
                </mxCell>
                <mxCell id="22" value="Text" style="text;html=1;strokeColor=none;fillColor=none;align=center;verticalAlign=middle;whiteSpace=wrap;rounded=0;" vertex="1" parent="1">
                    <mxGeometry x="400" y="350" width="40" height="20" as="geometry"/>
                </mxCell>
                <mxCell id="23" value="post comment" style="text;html=1;strokeColor=none;fillColor=none;align=center;verticalAlign=middle;whiteSpace=wrap;rounded=0;" vertex="1" parent="1">
                    <mxGeometry x="560" y="510" width="40" height="20" as="geometry"/>
                </mxCell>
                <mxCell id="24" value="str" style="text;html=1;strokeColor=none;fillColor=none;align=center;verticalAlign=middle;whiteSpace=wrap;rounded=0;" vertex="1" parent="1">
                    <mxGeometry x="440" y="130" width="40" height="20" as="geometry"/>
                </mxCell>
                <mxCell id="25" value="str" style="text;html=1;strokeColor=none;fillColor=none;align=center;verticalAlign=middle;whiteSpace=wrap;rounded=0;" vertex="1" parent="1">
                    <mxGeometry x="440" y="160" width="40" height="20" as="geometry"/>
                </mxCell>
                <mxCell id="26" value="str" style="text;html=1;strokeColor=none;fillColor=none;align=center;verticalAlign=middle;whiteSpace=wrap;rounded=0;" vertex="1" parent="1">
                    <mxGeometry x="440" y="190" width="40" height="20" as="geometry"/>
                </mxCell>
                <mxCell id="27" value="str" style="text;html=1;strokeColor=none;fillColor=none;align=center;verticalAlign=middle;whiteSpace=wrap;rounded=0;" vertex="1" parent="1">
                    <mxGeometry x="440" y="210" width="40" height="20" as="geometry"/>
                </mxCell>
                <mxCell id="28" value="str" style="text;html=1;strokeColor=none;fillColor=none;align=center;verticalAlign=middle;whiteSpace=wrap;rounded=0;" vertex="1" parent="1">
                    <mxGeometry x="440" y="240" width="40" height="20" as="geometry"/>
                </mxCell>
            </root>
        </mxGraphModel>
    </diagram>
</mxfile>